<svg xmlns="http://www.w3.org/2000/svg" width="461.64599609375" height="96" viewBox="0 0 461.64599609375 96" role="img" aria-label="Languages: Java, Python, JavaScript, C, SQL, T-SQL, R, Assembly">
<title>Languages: Java, Python, JavaScript, C, SQL, T-SQL, R, Assembly</title>
<style>.p{animation:pop .45s cubic-bezier(.2,.8,.2,1) both}@keyframes pop{from{opacity:0;transform:translateY(10px)}to{opacity:1;transform:none}}.h{opacity:0;animation:hl 4.50s linear infinite both}@keyframes hl{0%{opacity:0}4%{opacity:1}12%{opacity:0}100%{opacity:0}}@media (prefers-reduced-motion:reduce){.p{opacity:1;animation:none}.h{animation:none}}</style>
<g transform="translate(1.0 1)"><g class="p" style="animation-delay:0.00s"><rect width="96.1" height="40" rx="8" fill="#0d1117" stroke="#30363d"/><rect class="h" style="animation-delay:1.80s" width="96.1" height="40" rx="8" fill="#3fb950" fill-opacity=".08" stroke="#3fb950"/><svg x="13" y="9.0" width="22" height="22" viewBox="0 0 128 128"><path fill="#0074BD" d="M47.617 98.12s-4.767 2.774 3.397 3.71c9.892 1.13 14.947.968 25.845-1.092 0 0 2.871 1.795 6.873 3.351-24.439 10.47-55.308-.607-36.115-5.969zm-2.988-13.665s-5.348 3.959 2.823 4.805c10.567 1.091 18.91 1.18 33.354-1.6 0 0 1.993 2.025 5.132 3.131-29.542 8.64-62.446.68-41.309-6.336z"/><path fill="#EA2D2E" d="M69.802 61.271c6.025 6.935-1.58 13.17-1.58 13.17s15.289-7.891 8.269-17.777c-6.559-9.215-11.587-13.792 15.635-29.58 0 .001-42.731 10.67-22.324 34.187z"/><path fill="#0074BD" d="M102.123 108.229s3.529 2.91-3.888 5.159c-14.102 4.272-58.706 5.56-71.094.171-4.451-1.938 3.899-4.625 6.526-5.192 2.739-.593 4.303-.485 4.303-.485-4.953-3.487-32.013 6.85-13.743 9.815 49.821 8.076 90.817-3.637 77.896-9.468zM49.912 70.294s-22.686 5.389-8.033 7.348c6.188.828 18.518.638 30.011-.326 9.39-.789 18.813-2.474 18.813-2.474s-3.308 1.419-5.704 3.053c-23.042 6.061-67.544 3.238-54.731-2.958 10.832-5.239 19.644-4.643 19.644-4.643zm40.697 22.747c23.421-12.167 12.591-23.86 5.032-22.285-1.848.385-2.677.72-2.677.72s.688-1.079 2-1.543c14.953-5.255 26.451 15.503-4.823 23.725 0-.002.359-.327.468-.617z"/><path fill="#EA2D2E" d="M76.491 1.587S89.459 14.563 64.188 34.51c-20.266 16.006-4.621 25.13-.007 35.559-11.831-10.673-20.509-20.07-14.688-28.815C58.041 28.42 81.722 22.195 76.491 1.587z"/><path fill="#0074BD" d="M52.214 126.021c22.476 1.437 57-.8 57.817-11.436 0 0-1.571 4.032-18.577 7.231-19.186 3.612-42.854 3.191-56.887.874 0 .001 2.875 2.381 17.647 3.331z"/></svg><path d="M45.8 25.6V23.8Q46.5 24.4 47.2 24.7Q47.9 25 48.6 25Q49.7 25 50.1 24.5Q50.5 23.9 50.5 22.4V16.3H47.7V15.1H52V22.4Q52 24.5 51.2 25.4Q50.5 26.2 48.6 26.2Q47.9 26.2 47.2 26.1Q46.6 25.9 45.8 25.6ZM59.2 21.9H58.7Q57.5 21.9 56.9 22.3Q56.4 22.7 56.4 23.5Q56.4 24.3 56.8 24.7Q57.2 25.1 58 25.1Q59.2 25.1 59.8 24.3Q60.4 23.5 60.4 22.2V21.9ZM61.8 21.3V26H60.4V24.8Q60 25.5 59.3 25.9Q58.7 26.2 57.8 26.2Q56.5 26.2 55.8 25.5Q55 24.8 55 23.6Q55 22.2 55.9 21.5Q56.8 20.8 58.6 20.8H60.4V20.6Q60.4 19.6 59.9 19.2Q59.4 18.7 58.4 18.7Q57.7 18.7 57 18.9Q56.3 19.1 55.6 19.5V18.2Q56.4 17.9 57 17.7Q57.7 17.6 58.4 17.6Q59.4 17.6 60.1 17.9Q60.8 18.2 61.3 18.8Q61.6 19.2 61.7 19.7Q61.8 20.2 61.8 21.3ZM63.8 17.8H65.2L67.6 24.7L70 17.8H71.4L68.4 26H66.7ZM77.2 21.9H76.8Q75.6 21.9 75 22.3Q74.4 22.7 74.4 23.5Q74.4 24.3 74.9 24.7Q75.3 25.1 76.1 25.1Q77.2 25.1 77.8 24.3Q78.5 23.5 78.5 22.2V21.9ZM79.8 21.3V26H78.5V24.8Q78.1 25.5 77.4 25.9Q76.8 26.2 75.8 26.2Q74.6 26.2 73.8 25.5Q73.1 24.8 73.1 23.6Q73.1 22.2 74 21.5Q74.9 20.8 76.7 20.8H78.5V20.6Q78.5 19.6 78 19.2Q77.5 18.7 76.4 18.7Q75.7 18.7 75 18.9Q74.3 19.1 73.7 19.5V18.2Q74.4 17.9 75.1 17.7Q75.8 17.6 76.4 17.6Q77.4 17.6 78.2 17.9Q78.9 18.2 79.3 18.8Q79.6 19.2 79.7 19.7Q79.8 20.2 79.8 21.3Z" fill="#e6edf3"/></g></g><g transform="translate(107.1 1)"><g class="p" style="animation-delay:0.15s"><rect width="114.2" height="40" rx="8" fill="#0d1117" stroke="#30363d"/><rect class="h" style="animation-delay:2.35s" width="114.2" height="40" rx="8" fill="#3fb950" fill-opacity=".08" stroke="#3fb950"/><svg x="13" y="9.0" width="22" height="22" viewBox="0 0 128 128"><linearGradient id="python-python-original-a" gradientUnits="userSpaceOnUse" x1="70.252" y1="1237.476" x2="170.659" y2="1151.089" gradientTransform="matrix(.563 0 0 -.568 -29.215 707.817)"><stop offset="0" stop-color="#5A9FD4"/><stop offset="1" stop-color="#306998"/></linearGradient><linearGradient id="python-python-original-b" gradientUnits="userSpaceOnUse" x1="209.474" y1="1098.811" x2="173.62" y2="1149.537" gradientTransform="matrix(.563 0 0 -.568 -29.215 707.817)"><stop offset="0" stop-color="#FFD43B"/><stop offset="1" stop-color="#FFE873"/></linearGradient><path fill="url(#python-python-original-a)" d="M63.391 1.988c-4.222.02-8.252.379-11.8 1.007-10.45 1.846-12.346 5.71-12.346 12.837v9.411h24.693v3.137H29.977c-7.176 0-13.46 4.313-15.426 12.521-2.268 9.405-2.368 15.275 0 25.096 1.755 7.311 5.947 12.519 13.124 12.519h8.491V67.234c0-8.151 7.051-15.34 15.426-15.34h24.665c6.866 0 12.346-5.654 12.346-12.548V15.833c0-6.693-5.646-11.72-12.346-12.837-4.244-.706-8.645-1.027-12.866-1.008zM50.037 9.557c2.55 0 4.634 2.117 4.634 4.721 0 2.593-2.083 4.69-4.634 4.69-2.56 0-4.633-2.097-4.633-4.69-.001-2.604 2.073-4.721 4.633-4.721z" transform="translate(0 10.26)"/><path fill="url(#python-python-original-b)" d="M91.682 28.38v10.966c0 8.5-7.208 15.655-15.426 15.655H51.591c-6.756 0-12.346 5.783-12.346 12.549v23.515c0 6.691 5.818 10.628 12.346 12.547 7.816 2.297 15.312 2.713 24.665 0 6.216-1.801 12.346-5.423 12.346-12.547v-9.412H63.938v-3.138h37.012c7.176 0 9.852-5.005 12.348-12.519 2.578-7.735 2.467-15.174 0-25.096-1.774-7.145-5.161-12.521-12.348-12.521h-9.268zM77.809 87.927c2.561 0 4.634 2.097 4.634 4.692 0 2.602-2.074 4.719-4.634 4.719-2.55 0-4.633-2.117-4.633-4.719 0-2.595 2.083-4.692 4.633-4.692z" transform="translate(0 10.26)"/><radialGradient id="python-python-original-c" cx="1825.678" cy="444.45" r="26.743" gradientTransform="matrix(0 -.24 -1.055 0 532.979 557.576)" gradientUnits="userSpaceOnUse"><stop offset="0" stop-color="#B8B8B8" stop-opacity=".498"/><stop offset="1" stop-color="#7F7F7F" stop-opacity="0"/></radialGradient><path opacity=".444" fill="url(#python-python-original-c)" d="M97.309 119.597c0 3.543-14.816 6.416-33.091 6.416-18.276 0-33.092-2.873-33.092-6.416 0-3.544 14.815-6.417 33.092-6.417 18.275 0 33.091 2.872 33.091 6.417z"/></svg><path d="M47.9 16.3V20.4H49.6Q50.7 20.4 51.2 19.8Q51.8 19.3 51.8 18.3Q51.8 17.4 51.2 16.8Q50.7 16.3 49.6 16.3ZM46.4 15.1H49.6Q51.5 15.1 52.4 15.9Q53.4 16.7 53.4 18.3Q53.4 20 52.4 20.8Q51.5 21.6 49.6 21.6H47.9V26H46.4ZM60.3 23.4Q60 24.2 59.5 25.6Q58.7 27.6 58.5 28Q58.1 28.5 57.6 28.8Q57.1 29.1 56.5 29.1H55.4V28H56.2Q56.8 28 57.1 27.6Q57.4 27.3 58 25.9L54.8 17.8H56.2L58.7 24.2L61 17.8H62.5ZM67.6 15.5V17.8H70.6V18.8H67.6V23.3Q67.6 24.2 67.9 24.6Q68.2 24.9 69.1 24.9H70.6V26H69Q67.5 26 66.8 25.4Q66.2 24.8 66.2 23.3V18.8H64V17.8H66.2V15.5ZM79.8 20.9V26H78.4V20.9Q78.4 19.8 78 19.3Q77.7 18.8 76.8 18.8Q75.9 18.8 75.4 19.4Q74.9 20.1 74.9 21.4V26H73.5V14.6H74.9V19Q75.2 18.3 75.8 18Q76.5 17.6 77.3 17.6Q78.6 17.6 79.2 18.4Q79.8 19.2 79.8 20.9ZM85.6 18.7Q84.6 18.7 84.1 19.5Q83.6 20.3 83.6 21.9Q83.6 23.5 84.1 24.3Q84.6 25.1 85.6 25.1Q86.7 25.1 87.2 24.3Q87.7 23.5 87.7 21.9Q87.7 20.3 87.2 19.5Q86.7 18.7 85.6 18.7ZM85.6 17.6Q87.3 17.6 88.2 18.7Q89.2 19.8 89.2 21.9Q89.2 24 88.2 25.1Q87.3 26.2 85.6 26.2Q83.9 26.2 83 25.1Q82.1 24 82.1 21.9Q82.1 19.8 83 18.7Q83.9 17.6 85.6 17.6ZM97.9 20.9V26H96.5V20.9Q96.5 19.8 96.1 19.3Q95.7 18.8 94.9 18.8Q93.9 18.8 93.4 19.4Q92.9 20.1 92.9 21.4V26H91.6V17.8H92.9V19Q93.3 18.3 93.9 18Q94.5 17.6 95.4 17.6Q96.6 17.6 97.2 18.4Q97.9 19.2 97.9 20.9Z" fill="#e6edf3"/></g></g><g transform="translate(231.3 1)"><g class="p" style="animation-delay:0.30s"><rect width="150.3" height="40" rx="8" fill="#0d1117" stroke="#30363d"/><rect class="h" style="animation-delay:2.90s" width="150.3" height="40" rx="8" fill="#3fb950" fill-opacity=".08" stroke="#3fb950"/><svg x="13" y="9.0" width="22" height="22" viewBox="0 0 128 128"><path fill="#F0DB4F" d="M1.408 1.408h125.184v125.185H1.408z"/><path fill="#323330" d="M116.347 96.736c-.917-5.711-4.641-10.508-15.672-14.981-3.832-1.761-8.104-3.022-9.377-5.926-.452-1.69-.512-2.642-.226-3.665.821-3.32 4.784-4.355 7.925-3.403 2.023.678 3.938 2.237 5.093 4.724 5.402-3.498 5.391-3.475 9.163-5.879-1.381-2.141-2.118-3.129-3.022-4.045-3.249-3.629-7.676-5.498-14.756-5.355l-3.688.477c-3.534.893-6.902 2.748-8.877 5.235-5.926 6.724-4.236 18.492 2.975 23.335 7.104 5.332 17.54 6.545 18.873 11.531 1.297 6.104-4.486 8.08-10.234 7.378-4.236-.881-6.592-3.034-9.139-6.949-4.688 2.713-4.688 2.713-9.508 5.485 1.143 2.499 2.344 3.63 4.26 5.795 9.068 9.198 31.76 8.746 35.83-5.176.165-.478 1.261-3.666.38-8.581zM69.462 58.943H57.753l-.048 30.272c0 6.438.333 12.34-.714 14.149-1.713 3.558-6.152 3.117-8.175 2.427-2.059-1.012-3.106-2.451-4.319-4.485-.333-.584-.583-1.036-.667-1.071l-9.52 5.83c1.583 3.249 3.915 6.069 6.902 7.901 4.462 2.678 10.459 3.499 16.731 2.059 4.082-1.189 7.604-3.652 9.448-7.401 2.666-4.915 2.094-10.864 2.07-17.444.06-10.735.001-21.468.001-32.237z"/></svg><path d="M45.8 25.6V23.8Q46.5 24.4 47.2 24.7Q47.9 25 48.6 25Q49.7 25 50.1 24.5Q50.5 23.9 50.5 22.4V16.3H47.7V15.1H52V22.4Q52 24.5 51.2 25.4Q50.5 26.2 48.6 26.2Q47.9 26.2 47.2 26.1Q46.6 25.9 45.8 25.6ZM59.2 21.9H58.7Q57.5 21.9 56.9 22.3Q56.4 22.7 56.4 23.5Q56.4 24.3 56.8 24.7Q57.2 25.1 58 25.1Q59.2 25.1 59.8 24.3Q60.4 23.5 60.4 22.2V21.9ZM61.8 21.3V26H60.4V24.8Q60 25.5 59.3 25.9Q58.7 26.2 57.8 26.2Q56.5 26.2 55.8 25.5Q55 24.8 55 23.6Q55 22.2 55.9 21.5Q56.8 20.8 58.6 20.8H60.4V20.6Q60.4 19.6 59.9 19.2Q59.4 18.7 58.4 18.7Q57.7 18.7 57 18.9Q56.3 19.1 55.6 19.5V18.2Q56.4 17.9 57 17.7Q57.7 17.6 58.4 17.6Q59.4 17.6 60.1 17.9Q60.8 18.2 61.3 18.8Q61.6 19.2 61.7 19.7Q61.8 20.2 61.8 21.3ZM63.8 17.8H65.2L67.6 24.7L70 17.8H71.4L68.4 26H66.7ZM77.2 21.9H76.8Q75.6 21.9 75 22.3Q74.4 22.7 74.4 23.5Q74.4 24.3 74.9 24.7Q75.3 25.1 76.1 25.1Q77.2 25.1 77.8 24.3Q78.5 23.5 78.5 22.2V21.9ZM79.8 21.3V26H78.5V24.8Q78.1 25.5 77.4 25.9Q76.8 26.2 75.8 26.2Q74.6 26.2 73.8 25.5Q73.1 24.8 73.1 23.6Q73.1 22.2 74 21.5Q74.9 20.8 76.7 20.8H78.5V20.6Q78.5 19.6 78 19.2Q77.5 18.7 76.4 18.7Q75.7 18.7 75 18.9Q74.3 19.1 73.7 19.5V18.2Q74.4 17.9 75.1 17.7Q75.8 17.6 76.4 17.6Q77.4 17.6 78.2 17.9Q78.9 18.2 79.3 18.8Q79.6 19.2 79.7 19.7Q79.8 20.2 79.8 21.3ZM88.5 15.4V16.9Q87.9 16.5 87.2 16.3Q86.5 16.1 85.8 16.1Q84.8 16.1 84.2 16.6Q83.6 17 83.6 17.9Q83.6 18.6 84 19Q84.4 19.4 85.4 19.6L86.2 19.8Q87.8 20.1 88.5 20.9Q89.2 21.7 89.2 23Q89.2 24.6 88.2 25.4Q87.2 26.2 85.4 26.2Q84.6 26.2 83.8 26Q83.1 25.9 82.3 25.6V24Q83.1 24.5 83.9 24.8Q84.6 25 85.4 25Q86.5 25 87.1 24.5Q87.8 24 87.8 23.1Q87.8 22.3 87.3 21.9Q86.9 21.4 85.8 21.2L85 21Q83.5 20.7 82.8 20Q82.1 19.3 82.1 18.1Q82.1 16.6 83.1 15.7Q84.1 14.9 85.7 14.9Q86.4 14.9 87.1 15Q87.8 15.2 88.5 15.4ZM97.9 25.6Q97.4 25.9 96.8 26.1Q96.2 26.2 95.6 26.2Q93.7 26.2 92.7 25.1Q91.6 23.9 91.6 21.9Q91.6 19.9 92.7 18.7Q93.7 17.6 95.6 17.6Q96.2 17.6 96.8 17.8Q97.4 17.9 97.9 18.2V19.6Q97.4 19.2 96.9 19Q96.3 18.7 95.6 18.7Q94.4 18.7 93.7 19.6Q93 20.4 93 21.9Q93 23.4 93.7 24.2Q94.4 25.1 95.6 25.1Q96.3 25.1 96.9 24.9Q97.4 24.6 97.9 24.2ZM107.6 19.5Q107.2 19.2 106.8 19Q106.3 18.8 105.8 18.8Q104.5 18.8 103.9 19.6Q103.2 20.4 103.2 21.9V26H101.8V17.8H103.2V19.4Q103.5 18.5 104.2 18.1Q104.9 17.6 105.9 17.6Q106.4 17.6 106.8 17.7Q107.2 17.8 107.6 18.1ZM110.1 17.8H113.5V25H116.2V26H109.5V25H112.2V18.8H110.1ZM112.2 14.6H113.5V16.3H112.2ZM120 25V29.1H118.6V17.8H120V18.8Q120.3 18.2 120.9 17.9Q121.5 17.6 122.2 17.6Q123.7 17.6 124.5 18.7Q125.4 19.9 125.4 21.9Q125.4 23.9 124.5 25.1Q123.7 26.2 122.2 26.2Q121.4 26.2 120.9 25.9Q120.3 25.6 120 25ZM123.9 21.9Q123.9 20.3 123.5 19.5Q123 18.7 122 18.7Q121 18.7 120.5 19.5Q120 20.3 120 21.9Q120 23.5 120.5 24.3Q121 25.1 122 25.1Q123 25.1 123.5 24.3Q123.9 23.5 123.9 21.9ZM130.8 15.5V17.8H133.8V18.8H130.8V23.3Q130.8 24.2 131.1 24.6Q131.5 24.9 132.3 24.9H133.8V26H132.2Q130.7 26 130 25.4Q129.4 24.8 129.4 23.3V18.8H127.2V17.8H129.4V15.5Z" fill="#e6edf3"/></g></g><g transform="translate(391.6 1)"><g class="p" style="animation-delay:0.45s"><rect width="69.0" height="40" rx="8" fill="#0d1117" stroke="#30363d"/><rect class="h" style="animation-delay:3.45s" width="69.0" height="40" rx="8" fill="#3fb950" fill-opacity=".08" stroke="#3fb950"/><svg x="13" y="9.0" width="22" height="22" viewBox="0 0 128 128"><path fill="#659AD3" d="M115.4 30.7L67.1 2.9c-.8-.5-1.9-.7-3.1-.7-1.2 0-2.3.3-3.1.7l-48 27.9c-1.7 1-2.9 3.5-2.9 5.4v55.7c0 1.1.2 2.4 1 3.5l106.8-62c-.6-1.2-1.5-2.1-2.4-2.7z"/><path fill="#03599C" d="M10.7 95.3c.5.8 1.2 1.5 1.9 1.9l48.2 27.9c.8.5 1.9.7 3.1.7 1.2 0 2.3-.3 3.1-.7l48-27.9c1.7-1 2.9-3.5 2.9-5.4V36.1c0-.9-.1-1.9-.6-2.8l-106.6 62z"/><path fill="#fff" d="M85.3 76.1C81.1 83.5 73.1 88.5 64 88.5c-13.5 0-24.5-11-24.5-24.5s11-24.5 24.5-24.5c9.1 0 17.1 5 21.3 12.5l13-7.5c-6.8-11.9-19.6-20-34.3-20-21.8 0-39.5 17.7-39.5 39.5s17.7 39.5 39.5 39.5c14.6 0 27.4-8 34.2-19.8l-12.9-7.6z"/></svg><path d="M52.9 25.6Q52.3 25.9 51.7 26.1Q51.1 26.2 50.4 26.2Q48.3 26.2 47.2 24.7Q46 23.2 46 20.5Q46 17.9 47.2 16.4Q48.4 14.9 50.4 14.9Q51.1 14.9 51.7 15Q52.3 15.2 52.9 15.5V17Q52.3 16.5 51.7 16.3Q51.1 16.1 50.4 16.1Q49 16.1 48.3 17.2Q47.6 18.3 47.6 20.5Q47.6 22.8 48.3 23.9Q49 25 50.4 25Q51.1 25 51.7 24.8Q52.3 24.5 52.9 24.1Z" fill="#e6edf3"/></g></g><g transform="translate(1.0 53)"><g class="p" style="animation-delay:0.60s"><rect width="87.1" height="40" rx="8" fill="#0d1117" stroke="#30363d"/><rect class="h" style="animation-delay:4.00s" width="87.1" height="40" rx="8" fill="#3fb950" fill-opacity=".08" stroke="#3fb950"/><svg x="13" y="9.0" width="22" height="22" viewBox="0 0 128 128"><g fill="none" stroke="#58a6ff" stroke-width="9"><ellipse cx="64" cy="28" rx="44" ry="16"/><path d="M20 28v72c0 9 20 16 44 16s44-7 44-16V28"/><path d="M20 52c0 9 20 16 44 16s44-7 44-16M20 76c0 9 20 16 44 16s44-7 44-16"/></g></svg><path d="M52.4 15.4V16.9Q51.7 16.5 51.1 16.3Q50.4 16.1 49.7 16.1Q48.6 16.1 48 16.6Q47.4 17 47.4 17.9Q47.4 18.6 47.8 19Q48.2 19.4 49.3 19.6L50.1 19.8Q51.6 20.1 52.3 20.9Q53 21.7 53 23Q53 24.6 52.1 25.4Q51.1 26.2 49.3 26.2Q48.5 26.2 47.7 26Q46.9 25.9 46.2 25.6V24Q47 24.5 47.8 24.8Q48.5 25 49.3 25Q50.4 25 51 24.5Q51.6 24 51.6 23.1Q51.6 22.3 51.2 21.9Q50.8 21.4 49.7 21.2L48.9 21Q47.4 20.7 46.7 20Q46 19.3 46 18.1Q46 16.6 47 15.7Q48 14.9 49.6 14.9Q50.3 14.9 50.9 15Q51.6 15.2 52.4 15.4ZM58.8 26.2Q58.8 26.2 58.7 26.2Q58.6 26.2 58.5 26.2Q56.7 26.2 55.8 24.8Q54.9 23.4 54.9 20.5Q54.9 17.7 55.8 16.3Q56.7 14.9 58.5 14.9Q60.4 14.9 61.3 16.3Q62.2 17.7 62.2 20.5Q62.2 22.7 61.7 24Q61.2 25.3 60.2 25.9L61.6 27.2L60.5 28ZM60.7 20.5Q60.7 18.1 60.2 17.1Q59.7 16.1 58.5 16.1Q57.4 16.1 56.9 17.1Q56.4 18.1 56.4 20.5Q56.4 22.9 56.9 24Q57.4 25 58.5 25Q59.7 25 60.2 24Q60.7 23 60.7 20.5ZM64.6 15.1H66.1V24.8H71.4V26H64.6Z" fill="#e6edf3"/></g></g><g transform="translate(98.1 53)"><g class="p" style="animation-delay:0.75s"><rect width="105.2" height="40" rx="8" fill="#0d1117" stroke="#30363d"/><rect class="h" style="animation-delay:4.55s" width="105.2" height="40" rx="8" fill="#3fb950" fill-opacity=".08" stroke="#3fb950"/><svg x="13" y="9.0" width="22" height="22" viewBox="0 0 128 128"><path fill="#ee352c" d="M52.935 0v.002c-.426-.058-7.306 2.42-11.742 4.223-5.988 2.44-10.636 4.766-13.504 6.78-.926.657-2.054 1.75-2.475 2.37l-.007-.021a1.424 1.424 0 0 0-.069.148c-.022.04-.052.086-.066.12a1.812 1.812 0 0 0-.115.66l.064.06c.017.207.065.44.168.695.252.62.988 1.376 1.822 2.15 0 0 8.621 8.409 9.668 9.61 4.766 5.503 6.84 10.927 7.034 18.406.117 4.805-.796 9.03-3.063 13.932-4.03 8.796-12.535 18.504-25.652 29.276l.199-.067c-.09.072-.208.174-.295.242-1.57 1.24-3.896 3.565-5.078 5.038-1.764 2.209-3.157 4.553-3.758 6.355-1.066 3.255-.543 6.548 1.51 9.59 2.636 3.875 7.887 7.83 14.01 10.521 3.12 1.377 8.368 3.14 12.322 4.127 6.567 1.667 19.28 3.469 26.273 3.739 1.414.059 3.312.059 3.39 0 .155-.097 1.241-2.168 2.501-4.744 4.3-8.778 7.399-17.013 9.086-24.047 1.007-4.262 1.801-9.94 2.324-16.663.136-1.88.194-8.177.078-10.308-.175-3.487-.483-6.316-.968-9.086a4.17 4.17 0 0 1-.07-.573c15.578-4.628 32.768-8.821 44.187-10.568l1.764-.271-.272-.428c-1.55-2.403-2.615-3.894-3.894-5.483-3.72-4.61-8.233-8.349-13.756-11.449-7.595-4.244-17.419-7.557-29.858-10.018-2.344-.465-7.495-1.357-11.68-1.996l-.39-.699c-2.287-4.03-4.805-9.027-6.278-12.398-1.142-2.616-2.228-5.639-2.828-7.809C53.187.098 53.15.02 52.935 0Zm-.31.988h.02c.018.02.095.564.173 1.203.33 2.712.931 5.328 1.881 8.157.716 2.13.716 2.015-.117 1.763-1.976-.542-10.83-2.072-17.244-2.964-1.027-.135-1.899-.271-1.899-.291-.077-.078 4.63-2.537 6.703-3.506 2.654-1.22 9.94-4.265 10.483-4.362ZM33.947 9.67l.756.252c4.108 1.395 14.434 3.373 20.13 3.838.64.058 1.182.115 1.2.115.02.02-.52.31-1.219.639-2.75 1.376-5.775 3.061-7.867 4.36-.476.296-.912.546-1.127.648a1193.726 1193.726 0 0 1-1.932-.315l-1.824-1.787a803.536 803.536 0 0 0-7.11-6.84zm-.775.602 2.732 3.41c1.492 1.88 3.003 3.72 3.332 4.127.291.359.503.622.543.7-1.935-.337-4.006-.708-5.6-1.052-1.163-.252-3.39-.775-5.134-1.375-.18-.07-.385-.146-.58-.219v-.205c.02-1.3 1.666-3.238 4.455-5.213zm23.173 4.646c.015-.007.03-.006.04.004.077 0 .172.172.404.695.66 1.453 2.715 5.367 3.219 6.123l.064.104a1193.726 1193.726 0 0 1-10.977-1.79 2.86 2.86 0 0 1 .372-.232c2.035-1.124 4.088-2.557 5.91-4.088.445-.368.851-.715.93-.773a.097.097 0 0 1 .038-.043zm-26.138 3.275c.019-.018.329.1.736.235a50.336 50.336 0 0 0 2.81.851 142.909 142.909 0 0 0 2.557.678c1.162.29 2.132.563 2.15.563.137.136 2.094 6.394 2.753 8.797.252.91.446 1.685.427 1.685-.02.02-.234-.31-.486-.756-2.267-3.99-5.851-8.04-9.998-11.297-.542-.387-.95-.736-.95-.756zm9.513 2.618c0 .038 0 .02.02.02.098 0 .524.057 1.047.173 3.293.736 9.203 1.86 12.98 2.5.64.097 1.143.214 1.143.252 0 .04-.23.175-.522.33-.64.33-3.217 1.86-4.07 2.44-2.15 1.435-4.087 2.983-5.482 4.378a79.99 79.99 0 0 1-1.047 1.028s-.115-.33-.213-.737c-.697-2.694-2.15-6.684-3.469-9.494-.213-.445-.387-.852-.387-.89zm16.8 3.215c.115.04.31.699.697 2.152a31.732 31.732 0 0 1 .93 8.873c-.04.814-.079 1.57-.118 1.668l-.057.191-1.007-.33c-2.073-.658-5.444-1.645-8.33-2.459-1.648-.446-2.985-.852-2.985-.89 0-.117 2.403-2.52 3.43-3.43 1.956-1.725 7.264-5.832 7.44-5.775zm1.335.195c.058-.058 8.024 1.316 11.647 2.014 2.694.523 6.607 1.338 6.84 1.435.115.04-.291.269-1.59.852-5.115 2.305-8.914 4.38-12.692 6.898-.988.66-1.822 1.201-1.84 1.201-.02 0-.039-.562-.039-1.24 0-3.681-.734-7.401-2.091-10.54-.136-.31-.254-.601-.235-.62zm20.596 4.068c.058.057-.193 1.629-.426 2.559-.698 2.887-2.576 7.17-4.88 11.2-.409.716-.778 1.297-.817 1.316-.038.02-.558-.273-1.16-.622-2.247-1.318-4.806-2.555-7.596-3.718-.775-.33-1.454-.601-1.473-.641-.136-.115 6.104-4.242 9.397-6.219 2.617-1.589 6.879-3.952 6.955-3.875zm1.475.233c.174 0 3.7.968 5.54 1.511 4.554 1.356 9.784 3.275 13.194 4.825l1.414.638-.986.233c-8.33 1.918-15.463 4.129-22.342 6.918-.562.233-1.066.425-1.104.425-.039 0 .157-.444.409-.986 2.073-4.399 3.408-8.991 3.738-12.906.019-.368.079-.658.137-.658zm-35.11 8.06c.058-.058 2.751.582 4.205.989 2.21.62 6.899 2.19 6.899 2.304 0 .02-.525.466-1.145 1.008-2.538 2.112-4.98 4.341-7.906 7.17-.871.833-1.606 1.51-1.645 1.51-.04 0-.059-.115-.04-.27.445-3.255.35-7.44-.27-11.683-.06-.543-.117-1.009-.098-1.028zm56.596.059c.038.039-1.24 2.052-2.055 3.195-1.162 1.667-2.867 3.877-6.722 8.72a1289.46 1289.46 0 0 0-5.076 6.413c-.775.969-1.415 1.783-1.436 1.783-.018 0-.27-.35-.541-.775-2.17-3.256-4.767-6.103-7.848-8.66a44.534 44.534 0 0 0-1.431-1.164c-.214-.155-.39-.31-.39-.33 0-.057 3.294-1.472 5.794-2.479 4.38-1.783 10.345-3.913 14.822-5.29 2.344-.735 4.844-1.452 4.883-1.413zm1.492.387c.077-.02.543.214 1.104.543 4.709 2.693 9.32 6.162 12.963 9.726 1.027 1.008 3.564 3.641 3.525 3.66 0 0-.891.08-1.937.157-8.157.62-18.6 2.343-28.635 4.765-.68.155-1.28.291-1.319.291-.038 0 .716-.756 1.666-1.666 5.89-5.677 8.583-9.261 11.76-15.656.446-.948.834-1.762.873-1.82zm-43.148 4.418c.27.058 2.788 1.239 4.687 2.189 1.744.871 4.361 2.266 4.496 2.383.02.019-.91.503-2.054 1.066a135.033 135.033 0 0 0-10.018 5.522c-.93.562-1.704 1.027-1.723 1.027-.078 0-.058-.078.465-1.027 1.744-3.177 3.14-6.975 3.934-10.676.077-.29.155-.484.213-.484zm-2.52.464c.058.058-.6 2.442-1.008 3.74-.795 2.46-2.131 5.54-3.43 7.866-.31.542-.775 1.338-1.027 1.783l-.484.774-1.084-1.045c-1.26-1.22-2.287-1.978-3.604-2.657-.524-.27-.93-.502-.93-.54 0-.156 3.314-3.159 5.852-5.329 1.82-1.57 5.657-4.65 5.715-4.592zm15.404 6.336.95.62c2.17 1.414 4.726 3.295 6.683 4.94 1.104.91 3.235 2.83 3.662 3.294l.233.252-1.57.447c-8.874 2.46-15.733 4.649-23.735 7.594-.892.33-1.647.6-1.705.6-.116 0-.213.096 1.783-1.745 5.115-4.707 9.65-9.898 13.022-14.955zm-4.05 1.008c.04.04-2.614 3.777-4.203 5.889-1.9 2.519-5.272 6.743-7.598 9.494-.968 1.144-1.8 2.092-1.84 2.111-.058.02-.078-.27-.078-.716 0-2.344-.599-4.844-1.645-6.975-.446-.891-.523-1.104-.425-1.201.368-.33 6.004-3.545 9.568-5.463 2.404-1.28 6.163-3.177 6.22-3.139zM44.1 55.26c.057 0 .502.233 1.007.504a21.28 21.28 0 0 1 3.332 2.248c.04.038-.464.446-1.123.93-1.84 1.317-4.63 3.43-6.258 4.728-1.705 1.356-1.763 1.394-1.57 1.104 1.28-1.957 1.92-3.062 2.598-4.477a36.066 36.066 0 0 0 1.627-4.05c.155-.56.347-.987.386-.987zm6.53 5.113c.097-.018.213.157.735.932 1.104 1.647 1.957 3.857 2.17 5.639l.039.386-2.654 1.028c-4.747 1.84-9.126 3.662-12.09 5.02a217.067 217.067 0 0 0-3.237 1.548c-.95.484-1.724.853-1.724.834 0-.02.6-.465 1.336-1.008 5.794-4.204 10.813-8.816 14.572-13.427.407-.484.775-.93.813-.95zm-3.003.737v.002c.078.077-2.132 2.576-3.643 4.107-3.74 3.816-7.441 6.801-12.033 9.707-.582.368-1.104.697-1.162.735-.135.078.038-.116 2.054-2.305a52.694 52.694 0 0 0 3.352-3.97c.736-.95.871-1.086 1.937-1.84 2.85-2.056 9.418-6.513 9.495-6.436zm25.974 2.3c.274 1.057.78 6.126.918 9.481.04.795.019 1.318-.021 1.318-.154 0-3.273-1.84-5.5-3.236-1.93-1.215-5.579-3.634-6.18-4.113a358.495 358.495 0 0 1 10.783-3.45zm-12.867 4.192c.254.11.635.32 1.404.795 3.991 2.5 9.418 5.522 11.743 6.53.716.31.793.193-.854 1.318-3.526 2.402-7.924 4.765-13.31 7.148-.95.426-1.745.756-1.764.756-.04 0 .077-.486.232-1.067 1.297-4.825 2.036-9.705 2.075-13.619.01-.977.014-1.46.039-1.707l.435-.154zm-2.965 1.055c.094.476.021 4.368-.127 5.494a49.361 49.361 0 0 1-1.78 8.428c-.214.717-.41 1.319-.448 1.357-.078.097-2.732-2.5-3.604-3.508-1.51-1.744-2.692-3.486-3.564-5.191-.404-.79-.987-2.205-1.055-2.518a345.346 345.346 0 0 1 8.592-3.355c.617-.232 1.343-.473 1.986-.707zm-12.603 4.9c.047.069.163.327.271.652.62 1.685 2.013 4.165 3.215 5.754 1.318 1.744 3.043 3.605 4.477 4.825.465.387.89.756.949.814.116.117.155.097-3.004 1.299-3.66 1.395-7.652 2.79-12.225 4.262a609.84 609.84 0 0 0-3.275 1.066c-.175.058-.114-.04.389-.834 2.267-3.544 5.714-10.5 7.652-15.422.33-.853.659-1.706.717-1.9.027-.095.066-.15.103-.211l.73-.305zm-4.01 1.7c-.132.39-.973 2.151-1.842 3.853-1.88 3.663-3.933 7.267-6.684 11.646-.466.755-.91 1.453-.97 1.53-.096.136-.135.098-.446-.502-.659-1.3-1.2-2.965-1.492-4.496-.29-1.511-.232-4.146.098-5.774.15-.717.216-.987.36-1.16a225.041 225.041 0 0 1 10.976-5.098zm33.479 1.2v.813c0 4.321-.465 10.25-1.143 14.57-.116.756-.213 1.377-.232 1.397 0 0-.563-.156-1.221-.35a49.985 49.985 0 0 1-8.912-3.816c-1.88-1.027-4.61-2.714-4.533-2.791.019-.02.832-.445 1.78-.95 3.799-1.975 7.441-4.107 10.6-6.22 1.182-.794 2.963-2.071 3.35-2.42zm-48.048 5.737c.074.004.052.163-.062.851a27.507 27.507 0 0 0-.213 2.07c-.155 2.83.31 4.925 1.705 7.792.388.794.698 1.453.678 1.472-.135.117-12.962 3.875-16.992 4.979-1.201.33-2.247.62-2.325.639-.136.04-.155.021-.097-.309.446-2.848 2.617-6.568 5.64-9.707 2.014-2.093 3.622-3.314 6.373-4.883.921-.524 2.066-1.163 3.057-1.71.737-.401 1.484-.799 2.236-1.194zm30.221 5.404h.002c.02-.02.483.232 1.045.56 4.147 2.404 9.921 4.633 14.842 5.776l.445.096-.619.35c-2.576 1.433-11.045 4.96-19.705 8.195-1.26.465-2.498.93-2.73 1.027-.233.097-.448.155-.448.135 0-.02.35-.698.795-1.531 2.422-4.534 4.863-10.055 6.104-13.891.155-.368.25-.697.27-.717zm-3.08 1.006h.002c.02.02-.136.428-.33.893-1.686 4.088-3.895 8.545-6.724 13.543-.716 1.28-1.317 2.306-1.336 2.306-.02 0-.601-.35-1.3-.775-4.106-2.52-7.75-5.62-10.132-8.623l-.35-.426 1.764-.484c6.316-1.724 11.684-3.584 17.012-5.87.756-.31 1.375-.564 1.394-.564zm19.143 6.686c.02.446-.967 4.437-1.781 7.324-.678 2.422-1.26 4.32-2.327 7.672-.464 1.474-.87 2.693-.89 2.693-.02 0-.135-.018-.252-.056-5.754-1.047-10.908-2.501-15.752-4.438-1.356-.543-3.293-1.415-3.41-1.512-.038-.039 1.124-.581 2.597-1.22 8.816-3.856 17.96-8.235 21.1-10.114.368-.233.657-.35.715-.35zM28.677 96.8c.04.04-2.423 3.585-5.87 8.41-1.203 1.686-2.597 3.661-3.12 4.397a77.468 77.468 0 0 0-1.764 2.596l-.814 1.261-.871-.738c-1.027-.853-2.809-2.673-3.604-3.68-1.666-2.073-2.791-4.264-3.236-6.26-.214-.93-.214-1.394-.02-1.45a1459.308 1459.308 0 0 1 10.31-2.424 861.655 861.655 0 0 0 6.935-1.627c1.124-.271 2.035-.485 2.054-.485zm2.479.95.621.697c2.79 3.12 5.637 5.425 9.086 7.44.62.35 1.086.659 1.047.679-.135.096-11.974 4.3-17.457 6.2a462.503 462.503 0 0 1-5.639 1.956c-.019 0-.194-.117-.387-.252l-.35-.252.563-.814c1.82-2.635 4.107-5.521 9.086-11.528zm15.463 11.062c.019-.02.87.29 1.918.68 2.519.949 4.513 1.55 7.187 2.228 3.294.833 8.061 1.646 10.872 1.88.426.037.657.076.58.134-.136.077-2.985 1.028-5.077 1.686-3.333 1.047-13.504 4.05-21.797 6.433a218.736 218.736 0 0 1-2.925.834c-.194.038-.834-.138-.834-.215 0-.038.465-.638 1.027-1.297 2.79-3.333 5.561-7.054 7.867-10.58.64-.969 1.182-1.764 1.182-1.783zm-3.412.098h.002c.019.02-1.357 2.227-3.76 6.025-1.026 1.608-2.17 3.432-2.576 4.07-.388.62-.971 1.59-1.3 2.131l-.56.987-.29-.076c-.699-.195-5.601-1.919-6.9-2.442a48.226 48.226 0 0 1-4.513-2.072c-1.55-.834-3.487-2.074-3.332-2.113.038-.02 2.692-.736 5.889-1.608 8.485-2.306 13.194-3.642 16.275-4.611.562-.175 1.046-.311 1.065-.291zm24.123 5.656h.021c.077.195-3.063 8.913-4.207 11.664-.25.62-.348.776-.484.756-.33-.02-4.881-.657-7.652-1.064-4.824-.736-12.925-2.15-14.958-2.616l-.464-.097 2.886-.659c6.2-1.395 9.184-2.15 12.207-3.08a86.251 86.251 0 0 0 11.413-4.4c.6-.27 1.102-.483 1.238-.502z"/></svg><path d="M45.3 15.1H53.7V16.3H50.3V26H48.8V16.3H45.3ZM56.6 21.3H60.5V22.5H56.6ZM70.5 15.4V16.9Q69.8 16.5 69.1 16.3Q68.4 16.1 67.8 16.1Q66.7 16.1 66.1 16.6Q65.5 17 65.5 17.9Q65.5 18.6 65.9 19Q66.3 19.4 67.4 19.6L68.2 19.8Q69.7 20.1 70.4 20.9Q71.1 21.7 71.1 23Q71.1 24.6 70.1 25.4Q69.2 26.2 67.3 26.2Q66.6 26.2 65.8 26Q65 25.9 64.2 25.6V24Q65.1 24.5 65.8 24.8Q66.6 25 67.3 25Q68.4 25 69.1 24.5Q69.7 24 69.7 23.1Q69.7 22.3 69.3 21.9Q68.8 21.4 67.8 21.2L67 21Q65.5 20.7 64.8 20Q64.1 19.3 64.1 18.1Q64.1 16.6 65.1 15.7Q66 14.9 67.7 14.9Q68.3 14.9 69 15Q69.7 15.2 70.5 15.4ZM76.9 26.2Q76.8 26.2 76.7 26.2Q76.6 26.2 76.6 26.2Q74.8 26.2 73.9 24.8Q72.9 23.4 72.9 20.5Q72.9 17.7 73.9 16.3Q74.8 14.9 76.6 14.9Q78.5 14.9 79.4 16.3Q80.3 17.7 80.3 20.5Q80.3 22.7 79.8 24Q79.3 25.3 78.2 25.9L79.7 27.2L78.6 28ZM78.7 20.5Q78.7 18.1 78.2 17.1Q77.7 16.1 76.6 16.1Q75.5 16.1 75 17.1Q74.5 18.1 74.5 20.5Q74.5 22.9 75 24Q75.5 25 76.6 25Q77.7 25 78.2 24Q78.7 23 78.7 20.5ZM82.7 15.1H84.2V24.8H89.5V26H82.7Z" fill="#e6edf3"/></g></g><g transform="translate(213.2 53)"><g class="p" style="animation-delay:0.90s"><rect width="69.0" height="40" rx="8" fill="#0d1117" stroke="#30363d"/><rect class="h" style="animation-delay:5.10s" width="69.0" height="40" rx="8" fill="#3fb950" fill-opacity=".08" stroke="#3fb950"/><svg x="13" y="9.0" width="22" height="22" viewBox="0 0 128 128"><defs><linearGradient id="r-a" x1=".741" x2="590.86" y1="3.666" y2="593.79" gradientTransform="matrix(.2169 0 0 .14527 -.16 14.112)" gradientUnits="userSpaceOnUse"><stop offset="0" stop-color="#cbced0"/><stop offset="1" stop-color="#84838b"/></linearGradient><linearGradient id="r-b" x1="301.03" x2="703.07" y1="151.4" y2="553.44" gradientTransform="matrix(.17572 0 0 .17931 -.16 14.112)" gradientUnits="userSpaceOnUse"><stop offset="0" stop-color="#276dc3"/><stop offset="1" stop-color="#165caa"/></linearGradient></defs><path fill="url(#r-a)" fill-rule="evenodd" d="M64 100.38c-35.346 0-64-19.19-64-42.863 0-23.672 28.654-42.863 64-42.863s64 19.19 64 42.863c0 23.672-28.654 42.863-64 42.863zm9.796-68.967c-26.866 0-48.646 13.119-48.646 29.303 0 16.183 21.78 29.303 48.646 29.303s46.693-8.97 46.693-29.303c0-20.327-19.827-29.303-46.693-29.303z"/><path fill="url(#r-b)" fill-rule="evenodd" d="M97.469 81.033s3.874 1.169 6.124 2.308c.78.395 2.132 1.183 3.106 2.219a8.388 8.388 0 0 1 1.42 2.04l15.266 25.74-24.674.01-11.537-21.666s-2.363-4.06-3.817-5.237c-1.213-.982-1.73-1.331-2.929-1.331h-5.862l.004 28.219-21.833.009V41.26h43.844s19.97.36 19.97 19.359c0 18.999-19.082 20.413-19.082 20.413zm-9.497-24.137-13.218-.009-.006 12.258 13.224-.005s6.124-.019 6.124-6.235c0-6.34-6.124-6.009-6.124-6.009z"/></svg><path d="M50.6 20.8Q51.1 21 51.5 21.4Q51.9 21.8 52.5 23L54 26H52.4L51.1 23.2Q50.6 22.1 50.1 21.7Q49.7 21.4 48.9 21.4H47.5V26H46V15.1H49.1Q50.9 15.1 51.9 15.9Q52.8 16.7 52.8 18.2Q52.8 19.3 52.2 20Q51.6 20.7 50.6 20.8ZM47.5 16.3V20.2H49.2Q50.2 20.2 50.7 19.7Q51.3 19.2 51.3 18.2Q51.3 17.3 50.7 16.8Q50.1 16.3 49.1 16.3Z" fill="#e6edf3"/></g></g><g transform="translate(292.3 53)"><g class="p" style="animation-delay:1.05s"><rect width="132.2" height="40" rx="8" fill="#0d1117" stroke="#30363d"/><rect class="h" style="animation-delay:5.65s" width="132.2" height="40" rx="8" fill="#3fb950" fill-opacity=".08" stroke="#3fb950"/><svg x="13" y="9.0" width="22" height="22" viewBox="0 0 128 128"><g fill="none" stroke="#d2a8ff" stroke-width="8" stroke-linecap="round"><rect x="30" y="30" width="68" height="68" rx="8"/><path d="M46 14v16M64 14v16M82 14v16M46 98v16M64 98v16M82 98v16M14 46h16M14 64h16M14 82h16M98 46h16M98 64h16M98 82h16"/></g><rect x="48" y="48" width="32" height="32" rx="4" fill="#d2a8ff"/></svg><path d="M49.5 16.4 48 22H51.1ZM48.6 15.1H50.4L53.8 26H52.2L51.4 23.2H47.6L46.8 26H45.3ZM61.2 18.1V19.4Q60.6 19.1 60 18.9Q59.4 18.7 58.8 18.7Q57.9 18.7 57.4 19Q57 19.3 57 19.9Q57 20.5 57.3 20.7Q57.7 21 59 21.3L59.5 21.4Q60.5 21.6 61.1 22.1Q61.6 22.7 61.6 23.6Q61.6 24.8 60.7 25.5Q59.8 26.2 58.3 26.2Q57.7 26.2 57 26.1Q56.4 26 55.6 25.7V24.3Q56.3 24.7 57 24.9Q57.7 25.1 58.3 25.1Q59.2 25.1 59.7 24.7Q60.2 24.4 60.2 23.7Q60.2 22.8 58.4 22.4L58.4 22.4L57.9 22.3Q56.7 22.1 56.2 21.5Q55.6 21 55.6 20.1Q55.6 18.9 56.4 18.2Q57.2 17.6 58.7 17.6Q59.4 17.6 60 17.7Q60.6 17.8 61.2 18.1ZM70.2 18.1V19.4Q69.6 19.1 69 18.9Q68.4 18.7 67.8 18.7Q66.9 18.7 66.5 19Q66 19.3 66 19.9Q66 20.5 66.4 20.7Q66.7 21 68 21.3L68.6 21.4Q69.6 21.6 70.1 22.1Q70.6 22.7 70.6 23.6Q70.6 24.8 69.7 25.5Q68.9 26.2 67.3 26.2Q66.7 26.2 66.1 26.1Q65.4 26 64.6 25.7V24.3Q65.4 24.7 66.1 24.9Q66.8 25.1 67.4 25.1Q68.3 25.1 68.8 24.7Q69.2 24.4 69.2 23.7Q69.2 22.8 67.4 22.4L67.4 22.4L66.9 22.3Q65.7 22.1 65.2 21.5Q64.7 21 64.7 20.1Q64.7 18.9 65.4 18.2Q66.2 17.6 67.7 17.6Q68.4 17.6 69 17.7Q69.6 17.8 70.2 18.1ZM80.2 21.6V22.2H74.4V22.3Q74.4 23.6 75.1 24.3Q75.8 25.1 77.1 25.1Q77.7 25.1 78.4 24.9Q79.1 24.7 79.9 24.2V25.6Q79.2 25.9 78.4 26.1Q77.7 26.2 77.1 26.2Q75.1 26.2 74.1 25.1Q73 23.9 73 21.9Q73 19.9 74 18.8Q75.1 17.6 76.9 17.6Q78.4 17.6 79.3 18.7Q80.2 19.7 80.2 21.6ZM78.9 21.2Q78.9 20 78.3 19.4Q77.8 18.7 76.8 18.7Q75.8 18.7 75.2 19.4Q74.6 20 74.5 21.2ZM86.1 18.6Q86.3 18.1 86.7 17.9Q87.1 17.6 87.6 17.6Q88.6 17.6 89 18.4Q89.4 19.1 89.4 21.2V26H88.2V21.3Q88.2 19.6 88 19.1Q87.8 18.7 87.3 18.7Q86.7 18.7 86.5 19.2Q86.3 19.6 86.3 21.3V26H85.1V21.3Q85.1 19.5 84.8 19.1Q84.6 18.7 84.1 18.7Q83.6 18.7 83.4 19.2Q83.1 19.6 83.1 21.3V26H81.9V17.8H83.1V18.5Q83.4 18.1 83.7 17.8Q84.1 17.6 84.6 17.6Q85.1 17.6 85.5 17.9Q85.9 18.1 86.1 18.6ZM96.9 21.9Q96.9 20.3 96.4 19.5Q95.9 18.7 94.9 18.7Q93.9 18.7 93.4 19.5Q92.9 20.3 92.9 21.9Q92.9 23.5 93.4 24.3Q93.9 25.1 94.9 25.1Q95.9 25.1 96.4 24.3Q96.9 23.5 96.9 21.9ZM92.9 18.8Q93.2 18.2 93.8 17.9Q94.4 17.6 95.1 17.6Q96.6 17.6 97.4 18.7Q98.3 19.9 98.3 21.9Q98.3 23.9 97.4 25.1Q96.6 26.2 95.1 26.2Q94.4 26.2 93.8 25.9Q93.3 25.6 92.9 25V26H91.6V14.6H92.9ZM103.9 23Q103.9 23.9 104.2 24.4Q104.5 24.9 105.2 24.9H106.8V26H105.1Q103.8 26 103.2 25.2Q102.5 24.4 102.5 23V15.6H100.4V14.5H103.9ZM114.5 23.4Q114.2 24.2 113.6 25.6Q112.9 27.6 112.7 28Q112.3 28.5 111.8 28.8Q111.3 29.1 110.6 29.1H109.6V28H110.4Q111 28 111.3 27.6Q111.6 27.3 112.1 25.9L109 17.8H110.4L112.8 24.2L115.2 17.8H116.7Z" fill="#e6edf3"/></g></g></svg>
